<svg viewBox="0 0 20 20" fill="none" xmlns="http://www.w3.org/2000/svg">
<g clip-path="url(#clip0_4_39)">
<path d="M17.557 3.21118H2.44296C1.09597 3.21118 0 4.30715 0 5.65414V14.3459C0 15.6929 1.09597 16.7889 2.44296 16.7889H17.557C18.904 16.7889 20 15.6929 20 14.3459V5.6544C20.0003 4.30715 18.9043 3.21118 17.557 3.21118ZM16.3633 4.80493L10 8.9046L3.63668 4.80493H16.3633ZM17.557 15.1954H2.44296C1.97466 15.1954 1.59375 14.8142 1.59375 14.3462V5.69956L9.50833 10.7889C9.51895 10.7956 9.53037 10.8001 9.54126 10.8062C9.55269 10.8126 9.56437 10.8187 9.57606 10.8245C9.63742 10.8561 9.70064 10.8816 9.76519 10.8984C9.77183 10.9002 9.77847 10.901 9.78511 10.9026C9.85603 10.9194 9.92775 10.9297 9.99947 10.9297H10C10.0005 10.9297 10.0011 10.9297 10.0011 10.9297C10.0728 10.9297 10.1445 10.9196 10.2154 10.9026C10.2221 10.901 10.2287 10.9002 10.2353 10.8984C10.2999 10.8816 10.3628 10.8561 10.4245 10.8245C10.4362 10.8187 10.4478 10.8126 10.4593 10.8062C10.4702 10.8001 10.4816 10.7956 10.4922 10.7889L18.4068 5.69956V14.3459C18.4065 14.8142 18.0253 15.1954 17.557 15.1954Z" fill="currentColor"/>
</g>
<defs>
<clipPath id="clip0_4_39">
<rect width="20" height="20" fill="white"/>
</clipPath>
</defs>
</svg>
