<svg width="20" height="20" viewBox="0 0 20 20" fill="none" xmlns="http://www.w3.org/2000/svg">
<g clip-path="url(#clip0_2_33)">
<path d="M13.5476 14.3955H10.8272V11.6749C10.8272 11.646 10.8212 11.6192 10.8182 11.5908C13.5715 11.1228 15.6749 8.72166 15.6749 5.83743C15.6749 2.61854 13.0565 0 9.83747 0C6.61867 0 4 2.61854 4 5.83743C4 8.72171 6.10353 11.1228 8.85652 11.5908C8.85404 11.6192 8.84794 11.646 8.84794 11.6749V14.3955H6.1274C5.5809 14.3955 5.13816 14.8386 5.13816 15.3848C5.13816 15.9312 5.5809 16.3743 6.1274 16.3743H8.84819V19.0952C8.84819 19.6416 9.29118 20.0845 9.83743 20.0845C10.3838 20.0845 10.8272 19.6414 10.8272 19.0952V16.3743H13.5476C14.0942 16.3743 14.5371 15.9312 14.5371 15.3848C14.5371 14.8387 14.0942 14.3955 13.5476 14.3955ZM5.97889 5.83743C5.97889 3.70977 7.70982 1.9786 9.83747 1.9786C11.9652 1.9786 13.6964 3.70956 13.6964 5.83743C13.6964 7.96529 11.9652 9.696 9.83747 9.696C7.71007 9.69604 5.97889 7.96508 5.97889 5.83743Z" fill="currentColor"/>
</g>
<defs>
<clipPath id="clip0_2_33">
<rect width="20" height="20" fill="white"/>
</clipPath>
</defs>
</svg>
