<svg width="20" height="20" viewBox="0 0 20 20" fill="none" xmlns="http://www.w3.org/2000/svg">
<path d="M19.4933 0.510649C19.1485 0.164598 18.6746 -0.0205882 18.1858 0.00182178L12.2556 0.269235C11.2977 0.312434 10.5562 1.12446 10.5994 2.08288C10.6425 3.04135 11.4552 3.78198 12.4119 3.74011L13.856 3.67497L11.9693 5.56285C10.7353 4.7829 9.30422 4.36527 7.80885 4.36527C5.72198 4.36527 3.76006 5.1784 2.28459 6.65497C-0.761531 9.70289 -0.761531 14.6624 2.28459 17.7104C3.76006 19.1869 5.72198 20 7.80885 20C9.89571 20 11.8575 19.1869 13.3331 17.7104C15.9574 15.0844 16.3205 11.0399 14.423 8.02105L16.3155 6.12744L16.2463 7.57175C16.2004 8.53011 16.9395 9.34416 17.8973 9.39014C17.9256 9.39147 17.9537 9.39217 17.9818 9.39217C18.9023 9.39217 19.6699 8.66804 19.7145 7.73812L19.998 1.82044C20.0215 1.33223 19.8383 0.856758 19.4933 0.510649ZM10.878 15.2537C10.0582 16.0739 8.96828 16.5256 7.80896 16.5256C6.64953 16.5256 5.5596 16.0739 4.73992 15.2537C3.04767 13.5603 3.04767 10.8051 4.73992 9.11172C5.5596 8.29147 6.64965 7.83974 7.80896 7.83974C8.96828 7.83974 10.0583 8.29147 10.878 9.11172C12.5703 10.805 12.5703 13.5602 10.878 15.2537Z" fill="currentColor"/>
</svg>
