<svg viewBox="0 0 20 20" fill="none" xmlns="http://www.w3.org/2000/svg">
<g clip-path="url(#clip0_4_38)">
<path d="M15.729 9.25317C15.6481 9.1922 15.5474 9.15897 15.4436 9.15897C15.3398 9.15897 15.2391 9.1922 15.1581 9.25317L11.0763 12.3406C11.0239 12.3802 10.9817 12.4304 10.9528 12.4875C10.9238 12.5445 10.9089 12.607 10.909 12.6702V20.568C10.909 20.6825 10.9575 20.7924 11.0438 20.8735C11.13 20.9545 11.247 21 11.369 21H14.0854C14.2074 21 14.3244 20.9545 14.4107 20.8735C14.4969 20.7924 14.5454 20.6825 14.5454 20.568V17.5847H16.3636V20.568C16.3636 20.6825 16.412 20.7924 16.4983 20.8735C16.5846 20.9545 16.7016 21 16.8236 21H19.5399C19.6619 21 19.7789 20.9545 19.8652 20.8735C19.9515 20.7924 19.9999 20.6825 19.9999 20.568V12.6667C20.0012 12.6013 19.9865 12.5365 19.9568 12.4773C19.9272 12.4181 19.8835 12.366 19.829 12.3252L15.729 9.25317ZM14.5454 15.8771H12.7272V14.1695H14.5454V15.8771ZM18.1817 15.8771H16.3636V14.1695H18.1817V15.8771ZM6.74543 0.192454C6.70364 0.133277 6.6469 0.0847339 6.58028 0.0511537C6.51366 0.0175736 6.43922 0 6.36361 0C6.288 0 6.21357 0.0175736 6.14695 0.0511537C6.08033 0.0847339 6.02359 0.133277 5.9818 0.192454L0.076367 7.22962C0.0263245 7.30048 -0.000247953 7.38367 3.62213e-06 7.46869V20.568C-0.000235618 20.6245 0.0113787 20.6805 0.0341836 20.7328C0.0569885 20.7851 0.0905373 20.8326 0.132914 20.8728C0.175292 20.9129 0.225667 20.9448 0.281165 20.9666C0.336663 20.9884 0.396196 20.9998 0.456365 21H5.0018C5.12237 20.9987 5.23751 20.9527 5.32226 20.8722C5.40701 20.7916 5.45454 20.6829 5.45453 20.5697V17.5847H7.2727V20.5697C7.2727 20.6838 7.32097 20.7933 7.4069 20.874C7.49282 20.9547 7.60936 21 7.73088 21H9.09088V10.7542C9.0908 10.6259 9.12148 10.4993 9.18066 10.3837C9.23984 10.2681 9.32598 10.1665 9.43269 10.0865L12.7272 7.33891C12.7272 7.25353 6.74543 0.192454 6.74543 0.192454ZM3.63635 14.1695H1.81818V12.4618H3.63635V14.1695ZM3.63635 9.04655H1.81818V7.33891H3.63635V9.04655ZM7.2727 14.1695H5.45453V12.4618H7.2727V14.1695ZM7.2727 9.04655H5.45453V7.33891H7.2727V9.04655Z" fill="currentColor"/>
</g>
<defs>
<clipPath id="clip0_4_38">
<rect width="20" height="20" fill="white"/>
</clipPath>
</defs>
</svg>
