<svg width="20" height="20" viewBox="0 0 20 20" fill="none" xmlns="http://www.w3.org/2000/svg">
<g clip-path="url(#clip0_4_37)">
<path d="M20 7.84995C20.0004 7.57844 19.9289 7.31165 19.7928 7.07673C19.6567 6.8418 19.4608 6.64711 19.225 6.51245L10.8 1.51245C10.5572 1.37079 10.2811 1.29614 9.99998 1.29614C9.71886 1.29614 9.44279 1.37079 9.19998 1.51245L0.76248 6.51245C0.52932 6.6508 0.33617 6.84744 0.202015 7.08304C0.0678589 7.31864 -0.00268555 7.58509 -0.00268555 7.8562C-0.00268555 8.12732 0.0678589 8.39377 0.202015 8.62937C0.33617 8.86497 0.52932 9.06161 0.76248 9.19995L3.16248 10.6V14.1125C3.16392 14.387 3.23597 14.6565 3.3717 14.8951C3.50743 15.1337 3.70227 15.3334 3.93748 15.475L9.24998 18.5375C9.48718 18.6688 9.75385 18.7377 10.025 18.7377C10.2961 18.7377 10.5628 18.6688 10.8 18.5375L16.1125 15.475C16.3477 15.3334 16.5425 15.1337 16.6783 14.8951C16.814 14.6565 16.886 14.387 16.8875 14.1125V10.5625L18.4375 9.64995V13.05H20V7.84995ZM15.3375 14.1L9.99998 17.175L4.72498 14.1125V11.525L9.19998 14.1875C9.44362 14.3267 9.71937 14.3999 9.99998 14.3999C10.2806 14.3999 10.5563 14.3267 10.8 14.1875L15.325 11.4875L15.3375 14.1ZM9.99998 12.8375L1.56248 7.83745L9.99998 2.82495L18.4375 7.82496L9.99998 12.8375Z" fill="currentColor"/>
</g>
<defs>
<clipPath id="clip0_4_37">
<rect width="20" height="20" fill="white"/>
</clipPath>
</defs>
</svg>
