<svg viewBox="0 0 20 21" fill="none" xmlns="http://www.w3.org/2000/svg">
<g clip-path="url(#clip0_4_36)">
<path fill-rule="evenodd" clip-rule="evenodd" d="M7.59804 18.0211C7.78922 18.3974 7.98067 18.7364 8.16367 19.0369C6.21939 18.5778 4.53229 17.4051 3.36487 15.7947C4.13534 15.3391 5.12217 14.8668 6.30851 14.5213C6.64569 15.9098 7.12138 17.0827 7.59804 18.0211ZM9.06867 17.1976C8.65456 16.3825 8.23956 15.3644 7.94056 14.1582C8.58422 14.0579 9.27133 14 10.0001 14C10.7288 14 11.4159 14.0579 12.0594 14.1581C11.7604 15.3644 11.3454 16.3825 10.9313 17.1976C10.5993 17.8513 10.2686 18.3731 10 18.755C9.73144 18.3731 9.40067 17.8513 9.06867 17.1976ZM7.5 10.5C7.5 11.1814 7.54367 11.8282 7.62067 12.4389C8.36322 12.3193 9.15711 12.25 10.0001 12.25C10.843 12.25 11.6369 12.3192 12.3793 12.4389C12.4563 11.8281 12.5 11.1814 12.5 10.5C12.5 9.81855 12.4563 9.17187 12.3793 8.56112C11.6369 8.6807 10.843 8.75 10.0001 8.75C9.15711 8.75 8.36322 8.6807 7.62067 8.56112C7.54367 9.17175 7.5 9.81855 7.5 10.5ZM5.98542 8.20027C5.88863 8.92243 5.83333 9.68963 5.83333 10.5C5.83333 11.3104 5.88863 12.0776 5.98542 12.7997C4.57042 13.1986 3.39869 13.7611 2.49249 14.3023C1.96331 13.1525 1.66667 11.8627 1.66667 10.5C1.66667 9.13733 1.96331 7.84751 2.49248 6.69769C3.39858 7.23884 4.57033 7.80134 5.98542 8.20027ZM7.94056 6.84186C8.58422 6.94216 9.27133 7 10.0001 7C10.7288 7 11.4159 6.94217 12.0594 6.84188C11.7604 5.63564 11.3454 4.61758 10.9313 3.8024C10.5993 3.14876 10.2686 2.62682 10 2.24504C9.73144 2.62682 9.40067 3.14876 9.06867 3.80238C8.65456 4.61756 8.23956 5.63562 7.94056 6.84186ZM14.0146 8.20038C14.1113 8.92255 14.1667 9.68975 14.1667 10.5C14.1667 11.3104 14.1113 12.0774 14.0146 12.7996C15.4296 13.1986 16.6013 13.7611 17.5076 14.3023C18.0367 13.1524 18.3333 11.8625 18.3333 10.5C18.3333 9.13745 18.0367 7.84755 17.5076 6.69775C16.6014 7.2389 15.4297 7.80138 14.0146 8.20038ZM16.6351 5.20541C15.8646 5.66103 14.8778 6.13322 13.6916 6.47883C13.3543 5.09021 12.8787 3.9173 12.402 2.97887C12.2108 2.60256 12.0193 2.26363 11.8363 1.96315C13.7807 2.42227 15.4678 3.59492 16.6351 5.20541ZM6.3085 6.47879C5.12223 6.13318 4.13544 5.66098 3.36488 5.20535C4.53229 3.5949 6.21939 2.42227 8.16356 1.96315C7.98067 2.26363 7.78922 2.60255 7.59803 2.97885C7.12138 3.91728 6.64569 5.09018 6.3085 6.47879ZM13.6916 14.5211C13.3543 15.9098 12.8787 17.0827 12.402 18.0211C12.2108 18.3974 12.0193 18.7364 11.8363 19.0369C13.7807 18.5778 15.4678 17.405 16.6352 15.7946C15.8647 15.339 14.8779 14.8668 13.6916 14.5211ZM10 21C15.5229 21 20 16.299 20 10.5C20 4.70101 15.5229 0 10 0C4.47716 0 0 4.70101 0 10.5C0 16.299 4.47716 21 10 21Z" fill="currentColor"/>
</g>
<defs>
<clipPath id="clip0_4_36">
<rect width="20" height="21" fill="white"/>
</clipPath>
</defs>
</svg>
